<svg width="22" height="22" viewBox="0 0 22 22" fill="none" xmlns="http://www.w3.org/2000/svg">
<path d="M6.41669 6.53752V6.44529C6.41669 4.2994 6.41669 3.22645 7.10628 2.62836C7.79588 2.03028 8.85804 2.18202 10.9824 2.48549L14.0985 2.93066C16.5547 3.28154 17.7827 3.45697 18.5164 4.30287C19.25 5.14876 19.25 6.38929 19.25 8.87036V13.1295C19.25 15.6105 19.25 16.8511 18.5164 17.697C17.7827 18.5429 16.5547 18.7183 14.0985 19.0692L10.8941 19.527C8.85483 19.8183 7.8352 19.9639 7.15703 19.414C7.12273 19.3862 7.08936 19.3573 7.05698 19.3273C6.41669 18.7337 6.41669 17.7037 6.41669 15.6437V15.6437" stroke="#3A5FEB" stroke-width="2"/>
<path d="M14.6667 11.0001L15.4476 10.3754L15.9473 11.0001L15.4476 11.6248L14.6667 11.0001ZM3.66669 12.0001C3.1144 12.0001 2.66669 11.5524 2.66669 11.0001C2.66669 10.4478 3.1144 10.0001 3.66669 10.0001V12.0001ZM11.7809 5.79205L15.4476 10.3754L13.8858 11.6248L10.2192 7.04144L11.7809 5.79205ZM15.4476 11.6248L11.7809 16.2081L10.2192 14.9587L13.8858 10.3754L15.4476 11.6248ZM14.6667 12.0001H3.66669V10.0001H14.6667V12.0001Z" fill="#3A5FEB"/>
</svg>
