<svg width="21" height="14" viewBox="0 0 21 14" fill="none" xmlns="http://www.w3.org/2000/svg">
<path d="M16.869 4.37935L16.8692 4.37926L19.494 3.26877C19.494 3.26875 19.4941 3.26872 19.4942 3.26869C19.5538 3.24352 19.6282 3.2287 19.7081 3.23175C19.788 3.2348 19.8577 3.25513 19.9096 3.28224L20.3773 2.38752L19.9096 3.28225C19.9603 3.30875 19.983 3.33557 19.9903 3.34637V9.98053C19.983 9.99132 19.9603 10.0181 19.9096 10.0446L20.3773 10.9394L19.9096 10.0446C19.8577 10.0718 19.788 10.0921 19.7081 10.0951C19.6281 10.0982 19.5536 10.0833 19.494 10.0581L16.8692 8.94763L16.869 8.94755C16.8037 8.91993 16.7721 8.88721 16.7613 8.8724L16.7596 8.87366L16.7613 8.8724C16.7606 8.87151 16.7601 8.87069 16.7596 8.86995V4.45694C16.7601 4.4562 16.7606 4.45538 16.7613 4.45449C16.7721 4.43968 16.8037 4.40696 16.869 4.37935ZM1.42099 11.9056L0.768843 12.6763L1.42099 11.9056C1.13114 11.6603 1.00961 11.3674 1.00961 11.1057V2.22115C1.00961 1.95944 1.13114 1.66654 1.42099 1.42128C1.71594 1.17172 2.14712 1.00961 2.62499 1.00961H10.5C10.9779 1.00961 11.409 1.17172 11.704 1.42128C11.9938 1.66655 12.1154 1.95944 12.1154 2.22115V11.1057C12.1154 11.3674 11.9938 11.6603 11.704 11.9056C11.409 12.1552 10.9779 12.3173 10.5 12.3173H2.62499C2.14712 12.3173 1.71594 12.1552 1.42099 11.9056Z" fill="white" stroke="#3A5FEB" stroke-width="2"/>
</svg>
