<svg width="25" height="24" viewBox="0 0 25 24" fill="none" xmlns="http://www.w3.org/2000/svg">
<path d="M19.7726 4H17.7954V3C17.7954 2.73478 17.6912 2.48043 17.5058 2.29289C17.3204 2.10536 17.0689 2 16.8067 2C16.5445 2 16.2931 2.10536 16.1077 2.29289C15.9223 2.48043 15.8181 2.73478 15.8181 3V4H9.88627V3C9.88627 2.73478 9.78211 2.48043 9.59671 2.29289C9.4113 2.10536 9.15984 2 8.89764 2C8.63544 2 8.38397 2.10536 8.19857 2.29289C8.01316 2.48043 7.909 2.73478 7.909 3V4H5.93173C5.14512 4 4.39073 4.31607 3.83452 4.87868C3.2783 5.44129 2.96582 6.20435 2.96582 7V19C2.96582 19.7956 3.2783 20.5587 3.83452 21.1213C4.39073 21.6839 5.14512 22 5.93173 22H19.7726C20.5592 22 21.3136 21.6839 21.8699 21.1213C22.4261 20.5587 22.7385 19.7956 22.7385 19V7C22.7385 6.20435 22.4261 5.44129 21.8699 4.87868C21.3136 4.31607 20.5592 4 19.7726 4ZM20.7613 19C20.7613 19.2652 20.6571 19.5196 20.4717 19.7071C20.2863 19.8946 20.0348 20 19.7726 20H5.93173C5.66953 20 5.41806 19.8946 5.23266 19.7071C5.04725 19.5196 4.94309 19.2652 4.94309 19V12H20.7613V19ZM20.7613 10H4.94309V7C4.94309 6.73478 5.04725 6.48043 5.23266 6.29289C5.41806 6.10536 5.66953 6 5.93173 6H7.909V7C7.909 7.26522 8.01316 7.51957 8.19857 7.70711C8.38397 7.89464 8.63544 8 8.89764 8C9.15984 8 9.4113 7.89464 9.59671 7.70711C9.78211 7.51957 9.88627 7.26522 9.88627 7V6H15.8181V7C15.8181 7.26522 15.9223 7.51957 16.1077 7.70711C16.2931 7.89464 16.5445 8 16.8067 8C17.0689 8 17.3204 7.89464 17.5058 7.70711C17.6912 7.51957 17.7954 7.26522 17.7954 7V6H19.7726C20.0348 6 20.2863 6.10536 20.4717 6.29289C20.6571 6.48043 20.7613 6.73478 20.7613 7V10Z" fill="#3A5FEB"/>
</svg>
